<svg xmlns="http://www.w3.org/2000/svg" width="310" height="310" viewBox="0 0 310 310">
    <g fill="none" fill-rule="evenodd">
        <rect width="310" height="310" fill="#D8D8D8" fill-opacity="0" fill-rule="nonzero" rx="2"/>
        <path fill="#29B6C5" d="M93.923 268.933c71.403-28.34 108.008-42.976 109.814-43.905 2.71-1.395 4.517.954 4.517 2.516v12.67c0 3.241-.708 6.754-4.517 8.926-3.809 2.173-105.81 57.435-109.814 59.508-4.003 2.073-5.95-.538-5.95-3.802v-25.89c0-4.648 1.983-7.99 5.95-10.023zm-78.345-22.935c6.013-1.656 121.541-30.383 125.072-31.318 3.53-.934 5.264 1.128 5.264 2.345v10.1c0 3.578-2.224 5.287-5.264 5.99-3.04.702-81.858 23.089-86.733 24.494-4.874 1.405-10.566 1.61-14.539.656-3.973-.954-21.714-4.781-25.96-5.622-4.247-.84-3.853-4.989 2.16-6.645zm139.71-11.353c3.912.69 5.485 1.147 7.845 1.613 2.36.466 3.24 2.49 0 3.635-3.24 1.145-55.999 22.468-63.637 25.64-7.638 3.17-15.944 3.078-19.657 2.337-3.713-.74-17.976-3.974-22.12-5.022-4.145-1.048-.8-4.06 3.047-5.234 3.848-1.174 73.973-20.815 79.85-22.334 5.877-1.52 10.76-1.324 14.672-.635zm9.06-117.36c3.448.638 34.015 6.202 38.414 7.25 4.398 1.048 4.775 3.083 4.902 5.239.128 2.156-.127 10.671 0 13.888.128 3.218-.127 6.706-4.902 6.334-4.775-.373-32.22-4.359-38.448-5.029-6.228-.67-7.388-3.586-7.388-6.305v-16.788c0-4.683 3.972-5.228 7.421-4.59zm3.045 29.35c3.603.308 15.44 1.964 21.325 2.734 5.884.77 6.676 3.245 3.463 3.76-3.214.516-35.779 4.702-39.727 5.292-3.95.59-9.85.83-12.971.675-3.121-.156-19.069-.859-23.591-1.297-4.523-.439-5.773-2.768-2.408-3.57 3.365-.802 22.893-5.037 33.226-7.114 10.334-2.078 17.08-.787 20.683-.48zm50.45-60.583c0-5.883-.417-15.053 6.009-12.385 6.425 2.668 70.28 30.272 74.552 32.054 4.273 1.782 6.36 5.37 6.36 15.84v77.377c0 3.654-.878 6.817-7.029 10.209-6.15 3.392-67.015 36.83-70.449 38.794-3.434 1.965-9.443.517-9.443-9.014V86.052z" opacity=".6"/>
        <path fill="#FFF" fill-rule="nonzero" d="M155.288 234.645c-3.913-.69-8.795-.884-14.672.635-5.877 1.519-76.002 21.16-79.85 22.334-3.847 1.175-7.192 4.186-3.048 5.234 4.145 1.048 18.408 4.282 22.12 5.022 3.714.74 12.02.834 19.658-2.338 7.638-3.171 60.397-24.494 63.637-25.64 3.24-1.144 2.36-3.168 0-3.634-2.36-.466-3.933-.924-7.845-1.613z" opacity=".8"/>
        <path fill="#FFF" d="M164.347 117.285c3.45.638 34.016 6.202 38.415 7.25 4.398 1.048 4.775 3.083 4.902 5.239.128 2.156-.127 10.671 0 13.888.128 3.218-.127 6.706-4.902 6.334-4.775-.373-32.22-4.359-38.448-5.029-6.228-.67-7.388-3.586-7.388-6.305v-16.788c0-4.683 3.972-5.228 7.421-4.59zm53.496-31.233c0-5.883-.417-15.053 6.009-12.385 6.425 2.668 70.28 30.272 74.552 32.054 4.273 1.782 6.36 5.37 6.36 15.84v77.377c0 3.654-.878 6.817-7.029 10.209-6.15 3.392-67.015 36.83-70.449 38.794-3.434 1.965-9.443.517-9.443-9.014V86.052zm-123.92 182.88c71.403-28.34 108.008-42.975 109.814-43.904 2.71-1.395 4.517.954 4.517 2.516v12.67c0 3.241-.708 6.754-4.517 8.926-3.809 2.173-105.81 57.435-109.814 59.508-4.003 2.073-5.95-.538-5.95-3.802v-25.89c0-4.648 1.983-7.99 5.95-10.023zm-78.345-22.934c6.013-1.656 121.541-30.383 125.072-31.318 3.53-.934 5.264 1.128 5.264 2.345v10.1c0 3.578-2.224 5.287-5.264 5.99-3.04.702-81.858 23.089-86.733 24.494-4.874 1.405-10.566 1.61-14.539.656-3.973-.954-21.714-4.781-25.96-5.622-4.247-.84-3.853-4.989 2.16-6.645z" opacity=".4"/>
        <path fill="#29B6C5" d="M147.34 185.44a.525.525 0 0 1 0-.262v-26.18l-2.473-.16v51.604l2.474-.629v-24.374zm62.905.732V150.22l-61.857 8.775v25.802l61.857 1.375zm0 1.048l-61.857-1.375v23.957l61.857 9.015V187.22zm0-64.4V81.197l-61.857 15.41v19.428l10.376-3.04a.522.522 0 0 1 .429.062.522.522 0 0 1 .2 0l50.852 9.765zm0 1.068l-50.427-9.684v28.258l50.427 6.684v-25.258zm-51.474 18.567v-28.37l-57.682 16.9v23.901l57.682-12.43zm-14.952-25.082v-25.65c0-.233.154-.438.378-.503l76.189-22.07a.524.524 0 0 1 .573-.108L241 77.64l12.08 5.144a.522.522 0 0 1 .162.11l56.442 24.216a.524.524 0 0 1 .317.481v97.894a.524.524 0 0 1-.272.46l-88.559 48.532a.522.522 0 0 1-.394.155.523.523 0 0 1-.172-.022l-18.143-5.423-111.963 60.626a.523.523 0 0 1-.394.042L.378 283.903A.524.524 0 0 1 0 283.4v-35.7c0-.24.162-.449.395-.508l143.424-36.483v-51.94l-42.929-2.789a.572.572 0 0 1-.149-.029.523.523 0 0 1-.7-.494v-24.865c0-.233.154-.438.377-.503l43.401-12.716zm1.048-.307l2.474-.725V96.197c0-.241.163-.45.397-.509l62.904-15.67c.33-.083.65.167.65.508v138.762c.012.044.019.09.019.138v24.657c0 .192-.106.369-.275.46l-7.275 3.94 16.513 4.935V70.273l-75.407 21.844v24.95zm2.474 93.828L2.117 247.835l46.101 10.189a.521.521 0 0 1 .215-.122l98.908-28.375v-18.633zm1.047-.033v18.496l23.43 4.964a.523.523 0 0 1 .169.067l36.724-14.735-60.323-8.792zm-.192 19.527a.521.521 0 0 1-.435.108l-97.516 27.976 39.754 8.786a.527.527 0 0 1 .041.01l80.252-32.2-22.096-4.68zm62.067-6.66a.525.525 0 0 1-.018-.138v-3.424L90.41 268.25v40.42l119.853-64.899v-20.042zm11.058 29.471l87.632-48.024v-97.238l-68.366-29.333-19.266-8.204v182.8zM1.047 248.672v34.334l88.316 25.545v-40.36L1.047 248.671zm158.145-105.236l-54.485 11.742 43.296 2.813 58.449-8.29-47.26-6.265zM176.12 95.2a3.666 3.666 0 0 0-3.84 3.663 3.666 3.666 0 0 0 3.84 3.663 4.713 4.713 0 0 1-1.745-3.663c0-1.452.663-2.785 1.745-3.663zm1.397.349a3.668 3.668 0 0 0-2.095 3.314c0 1.424.819 2.7 2.08 3.307l-.01.02a3.668 3.668 0 0 0 .025-6.641zm-1.571 8.03a4.714 4.714 0 0 1-4.713-4.716 4.714 4.714 0 1 1 9.426 0 4.714 4.714 0 0 1-4.713 4.715zm-48.002 23.055a3.666 3.666 0 0 0-3.84 3.663 3.666 3.666 0 0 0 3.84 3.664 4.713 4.713 0 0 1-1.745-3.663c0-1.453.663-2.786 1.745-3.664zm1.397.35a3.668 3.668 0 0 0-2.094 3.314c0 1.424.818 2.7 2.078 3.307l-.009.019a3.668 3.668 0 0 0 .025-6.64zm-1.57 8.029a4.714 4.714 0 0 1-4.714-4.715 4.714 4.714 0 1 1 9.426 0 4.714 4.714 0 0 1-4.713 4.715zM44.421 261.88a5.762 5.762 0 0 0-6.72 5.683 5.762 5.762 0 0 0 6.72 5.683 6.809 6.809 0 0 1-3.054-5.683 6.81 6.81 0 0 1 3.054-5.683zm1.228.35l.059.124a5.763 5.763 0 0 0-3.293 5.209 5.763 5.763 0 0 0 3.266 5.197l-.074.153a5.765 5.765 0 0 0 .042-10.683zm-2.187 12.144a6.81 6.81 0 0 1-6.808-6.811 6.81 6.81 0 0 1 6.808-6.81 6.81 6.81 0 0 1 6.807 6.81 6.81 6.81 0 0 1-6.807 6.81zM176.12 159.64a3.666 3.666 0 0 0-3.84 3.663 3.666 3.666 0 0 0 3.84 3.664 4.713 4.713 0 0 1-1.745-3.664c0-1.452.663-2.785 1.745-3.663zm1.397.349a3.668 3.668 0 0 0-2.095 3.314c0 1.425.819 2.7 2.08 3.307l-.01.02a3.668 3.668 0 0 0 .025-6.641zm-1.571 8.03a4.714 4.714 0 0 1-4.713-4.716 4.714 4.714 0 1 1 9.426 0 4.714 4.714 0 0 1-4.713 4.716zm.174 21.484a3.666 3.666 0 0 0-3.84 3.663 3.666 3.666 0 0 0 3.84 3.664 4.713 4.713 0 0 1-1.745-3.664c0-1.452.663-2.785 1.745-3.663zm1.397.349a3.668 3.668 0 0 0-2.095 3.314c0 1.425.819 2.7 2.08 3.307l-.01.02a3.668 3.668 0 0 0 .025-6.641zm-1.571 8.03a4.714 4.714 0 0 1-4.713-4.716 4.714 4.714 0 1 1 9.426 0 4.714 4.714 0 0 1-4.713 4.716z"/>
        <g>
            <path fill="#262254" d="M176.973 83.972c-2.012.541-3.14.878-4.581 1.254-1.442.376-3.398-.31-3.398-2.342s.15-4.63 2.693-5.393c2.543-.764 4.841 2.617 6.143 3.503 1.303.885 1.155 2.438-.857 2.978zm20.947-36.588c2.843-1.301 9.768-1.306 12.427-3.394 1.773-1.392 3.54-3.06 5.302-5.002 2.577-3.163 4.993-4.168 7.25-3.014 3.384 1.731 5.524 6.452 5.985 8.53.461 2.079.87 5.237 2.673 3.666 1.804-1.571 6.432-.214 8.88 1.306 2.449 1.52 3.42 3.236 3.42 5.414v16.653c0 3.667-1.312 2.806-2.872 2.806-1.56 0-2.202 1.375-3.671 1.608-1.47.233-8.296-2.655-10.846-4.118-2.551-1.462-3.57-1.679-5.412-1.155-1.842.523-6.086 2.618-9.524 2.604-3.44-.014-6.31-7.84-8.215-11.845-1.904-4.006-6.249-6.99-8.557-9.085-2.308-2.094.316-3.672 3.16-4.974z" opacity=".25"/>
            <path fill="#FFF" fill-rule="nonzero" d="M243.283 82.335c2.06.772 7.76 3.483 5.512 9.121-2.25 5.638-5.994 11.305-4.121 14.51 1.872 3.204 10.988 8.35 15.57 2.754 4.583-5.596 3.364-11.992 6.097-14.77.645-.656 1.502-1.1 2.58-1.1.524 0-.175-2.966-.175-4.18 0-4.554-11.855-7.262-15.7-7.139-1.815.059 1.515 2.235 0 2.235-2.796 0-10.851-1.839-9.763-1.431z"/>
            <path fill="#262254" d="M241.91 50.538c-2.53-2.356-6.18-4.243-10.954-5.654l.013-.042-2.053 1.855c.047.852.055 1.732.023 2.641a.524.524 0 0 1-1.047-.037c.02-.576.024-1.14.011-1.69a1340.874 1340.874 0 0 1-3.153 2.842c-1.696 1.518-3.349 2.56-4.964 3.12a.524.524 0 0 1-.343-.99c1.472-.51 3.009-1.478 4.607-2.91.573-.513 1.836-1.651 3.787-3.413-.5-6.547-3.531-11.182-9.128-13.957-7.36 5.848-13.41 12.072-13.952 15.497-.469 2.96.138 5.116 1.527 6.668a.523.523 0 1 1-.78.698c-1.603-1.79-2.3-4.264-1.782-7.53.188-1.186.961-2.662 2.176-4.32-6.523.853-12.34 2.698-17.453 5.534 7.607 2.943 13.586 10.916 17.968 23.87a.524.524 0 1 1-.992.336c-4.451-13.158-10.517-20.98-18.165-23.52a41.778 41.778 0 0 0-5.658 4.058l5.243-.002a.523.523 0 1 1 0 1.048l-6.445.002a.525.525 0 0 1-.527 0h-1.188a5.811 5.811 0 0 1-1.009.012.528.528 0 0 1-.078-.011l-11.386.003a.524.524 0 0 1-.16-.025c-.056.035-.111.07-.168.103a8.771 8.771 0 0 1-2.904 1.107v8.95a2.865 2.865 0 0 1 2.324 2.808c0 1.58-1.287 2.86-2.873 2.86a2.867 2.867 0 0 1-2.873-2.86 2.865 2.865 0 0 1 2.374-2.818v-8.809a8.756 8.756 0 0 1-.999.007.523.523 0 1 1 .053-1.046 7.688 7.688 0 0 0 4.359-1.096c3.644-2.19 4.832-6.903 2.655-10.527-2.178-3.624-6.897-4.788-10.541-2.598a7.688 7.688 0 0 0-3.216 3.804.524.524 0 0 1-.49.334c-6.773-.027-11.986-1.368-16.464-4.918-5.096 7.741-10.323 12.781-15.686 15.094 4.613 9.24 10.678 16.998 17.067 22.433 5.406 4.599 10.508 6.96 12.707 6.222 1.881-.63 3.57-1.826 5.31-3.66 1.3-1.369 1.86-2.091 4.645-5.849a142.917 142.917 0 0 1 1.035-1.38.524.524 0 0 1 .491-.343l14.046-.004a.523.523 0 1 1 0 1.047l-5.038.002c2.1 2.223 4.17 3.89 6.128 5.082.719.438 1.37.778 1.94 1.032a9.474 9.474 0 0 0 .676.27.524.524 0 1 1-.314 1 8.04 8.04 0 0 1-.79-.314c-.61-.271-1.3-.632-2.058-1.094-2.152-1.31-4.425-3.165-6.717-5.657a.521.521 0 0 1-.131-.27.533.533 0 0 1-.01.01c-3.175 3.679-4.398 7.216-3.714 10.636a.524.524 0 1 1-1.028.206c-.713-3.57.442-7.21 3.426-10.9l-6.128.001c-.293.387-.596.793-.972 1.3-2.818 3.8-3.386 4.532-4.727 5.946-1.849 1.948-3.674 3.24-5.738 3.932-2.668.895-8.05-1.595-13.718-6.417-3.781-3.217-7.446-7.227-10.77-11.864-.371.267-.754.52-1.15.756-7.753 4.66-17.797 2.182-22.434-5.534-4.433-7.378-2.323-16.916 4.721-21.808-.122-.19-.242-.384-.36-.579-6.63-11.035-3.013-25.382 8.076-32.045 8.398-5.046 18.92-4.322 26.463 1.558a16.37 16.37 0 0 1 5.83-5.966C156.115-1.894 166.16.583 170.795 8.3a16.171 16.171 0 0 1 2.247 9.897c5.14.462 9.798 3.308 12.509 7.82 3.866 6.434 2.793 14.63-2.435 19.892a5.757 5.757 0 0 1 .522 4.754c1-.721 2.03-1.399 3.092-2.033a.526.526 0 0 1 .332-.197c5.706-3.34 12.286-5.434 19.736-6.28a.524.524 0 1 1 .118 1.04c-.342.04-.681.08-1.02.125 2.483-3.386 6.808-7.528 11.753-11.504a25.45 25.45 0 0 0-2.583-.945.524.524 0 1 1 .309-1c1.137.35 2.203.753 3.197 1.21 9.24-7.278 20.324-13.8 25.602-13.8 5.246 0 7.97 1.824 9.478 6.712 1.404 4.55 1.833 11.629 1.833 26.843v24.072c2.817.277 5.592 1.16 7.868 2.644 3.94 2.57 6.184 6.728 6.184 12.4 0 5.542-1.023 10.186-2.78 13.605-1.491 2.903-3.45 4.712-5.086 4.796-1.27.064-2.226-.377-2.799-1.294-1.224.97-2.46 1.433-3.534 1.112-2.15-.643-3.098-2.078-2.759-4.143a3.253 3.253 0 0 1-1.232-.296c-1.556-.706-1.96-1.874-1.473-3.635.271-.98 2.343-5.674 2.38-5.764.253-.623.483-1.225.696-1.83 1.363-3.862.761-7.797-1.828-11.85a.523.523 0 1 1 .883-.564c2.756 4.314 3.408 8.582 1.934 12.763-.22.62-.455 1.238-.714 1.875-.068.165-2.094 4.755-2.341 5.65-.36 1.302-.143 1.93.896 2.401 2.422 1.1 5.61-2.646 6.817-7.717.753-3.165 1.128-5.61 1.128-7.323a.524.524 0 0 1 1.048 0c0 1.81-.386 4.328-1.157 7.565-1.025 4.311-3.408 7.837-5.94 8.582-.403 1.73.218 2.76 1.962 3.283.83.247 1.883-.255 2.96-1.23a.521.521 0 0 1 .205-.19c2.083-1.995 4.205-5.68 4.916-9.052.688-3.261.955-6.044.805-8.344a.524.524 0 0 1 1.045-.069c.158 2.406-.118 5.281-.824 8.629-.736 3.485-2.812 7.238-5.071 9.439.36.699.978 1.005 1.943.956 1.178-.06 2.87-1.623 4.208-4.229 1.677-3.263 2.664-7.744 2.664-13.126 0-5.318-2.066-9.147-5.71-11.523-3.012-1.965-7.004-2.813-10.707-2.508-4.666.384-6.862.23-9.308-.47-.325-.094-1.56-.472-1.859-.56-1.756-.513-2.953-.23-3.716.816a.524.524 0 0 1-.847-.616c1.05-1.441 2.71-1.832 4.858-1.204.125.036.403.12.71.213V50.538zm0-1.396V34.946a31231.38 31231.38 0 0 1-10.072 9.11c4.218 1.306 7.577 2.999 10.073 5.086zm1.045 25.27l.1.029c2.312.663 4.384.808 8.932.433.808-.066 1.629-.08 2.451-.044V50.833c0-27.786-1.457-32.508-10.263-32.508-4.952 0-15.58 6.267-24.56 13.265 5.426 2.848 8.5 7.46 9.192 13.793 3.718-3.358 9.461-8.553 17.23-15.583a.524.524 0 0 1 .704.776l-3.782 3.422V74.35a.528.528 0 0 1-.004.063zm11.519.42c.333.015.666.04.999.072a.524.524 0 0 0-1-.072zm-75.847-21.237a4.767 4.767 0 0 0 1.938-.656c2.254-1.355 2.989-4.27 1.643-6.51a4.785 4.785 0 0 0-.18-.278.524.524 0 0 1 .059-.67.524.524 0 0 1 .09-.116c5.062-4.915 6.142-12.71 2.477-18.81-2.64-4.393-7.251-7.097-12.294-7.358a.523.523 0 0 1-.386-.843 15.127 15.127 0 0 0-2.076-9.515c-4.338-7.22-13.738-9.537-20.997-5.176a15.315 15.315 0 0 0-5.77 6.165.524.524 0 0 1-.95-.04c-7.224-5.827-17.44-6.604-25.571-1.717-10.595 6.365-14.05 20.07-7.717 30.608.179.297.363.589.554.876.1.149.112.33.05.484a.523.523 0 0 1-.234.407c-6.842 4.511-8.944 13.609-4.731 20.62 4.338 7.219 13.738 9.537 20.996 5.176.373-.224.734-.462 1.084-.714a80.554 80.554 0 0 1-5.99-10.121c-2.079.766-4.178 1.125-6.299 1.075a.523.523 0 1 1 .026-1.048c7.53.18 14.91-5.19 22.126-16.186-2.335-2.032-4.476-4.705-6.548-8.153a.524.524 0 0 1 .899-.54c5.935 9.88 12.34 13.124 22.576 13.235a8.736 8.736 0 0 1 3.513-3.985c4.14-2.488 9.503-1.165 11.98 2.955 2.148 3.577 1.415 8.084-1.523 10.838l11.255-.003zm-34.945 12.743a.524.524 0 1 1 .383.975c-1.628.64-3.146.658-4.524.039a.523.523 0 0 1-.295-.355l-2.103-8.75a.524.524 0 0 1 1.019-.245l2.04 8.49c1.047.397 2.199.35 3.48-.154zm19.25-13.1a1.172 1.172 0 0 1-1.608-.396 1.172 1.172 0 0 1 .405-1.606 1.172 1.172 0 0 1 1.608.396 1.172 1.172 0 0 1-.405 1.607zm-.505 16.164a1.82 1.82 0 0 0 1.825-1.813 1.82 1.82 0 0 0-1.825-1.813 1.82 1.82 0 0 0-1.825 1.813 1.82 1.82 0 0 0 1.825 1.813zm-13.577 4.046l6.26-6.905a.524.524 0 0 1 .776.703l-6.26 6.905a.524.524 0 0 1-.776-.703zm-3.46-17.256c-.562.337-1.258.209-1.556-.287-.297-.496-.084-1.17.477-1.508.56-.337 1.256-.208 1.554.288.298.495.085 1.17-.476 1.507zm-9.108 6.694c-.56.337-1.257.208-1.554-.288-.298-.495-.085-1.17.476-1.507.56-.337 1.256-.209 1.554.287.298.496.085 1.171-.476 1.508z"/>
        </g>
    </g>
</svg>
